# Lab Table OBJ
o Table
v -0.7500 0.7600 -0.4250
v 0.7500 0.7600 -0.4250
v 0.7500 0.8200 -0.4250
v -0.7500 0.8200 -0.4250
v -0.7500 0.7600 0.4250
v 0.7500 0.7600 0.4250
v 0.7500 0.8200 0.4250
v -0.7500 0.8200 0.4250
v -0.7000 0.7200 -0.3750
v 0.7000 0.7200 -0.3750
v 0.7000 0.7600 -0.3750
v -0.7000 0.7600 -0.3750
v -0.7000 0.7200 0.3750
v 0.7000 0.7200 0.3750
v 0.7000 0.7600 0.3750
v -0.7000 0.7600 0.3750
v -0.7100 0.0000 -0.3850
v -0.6500 0.0000 -0.3850
v -0.6500 0.7600 -0.3850
v -0.7100 0.7600 -0.3850
v -0.7100 0.0000 -0.3250
v -0.6500 0.0000 -0.3250
v -0.6500 0.7600 -0.3250
v -0.7100 0.7600 -0.3250
v 0.6500 0.0000 -0.3850
v 0.7100 0.0000 -0.3850
v 0.7100 0.7600 -0.3850
v 0.6500 0.7600 -0.3850
v 0.6500 0.0000 -0.3250
v 0.7100 0.0000 -0.3250
v 0.7100 0.7600 -0.3250
v 0.6500 0.7600 -0.3250
v -0.7100 0.0000 0.3250
v -0.6500 0.0000 0.3250
v -0.6500 0.7600 0.3250
v -0.7100 0.7600 0.3250
v -0.7100 0.0000 0.3850
v -0.6500 0.0000 0.3850
v -0.6500 0.7600 0.3850
v -0.7100 0.7600 0.3850
v 0.6500 0.0000 0.3250
v 0.7100 0.0000 0.3250
v 0.7100 0.7600 0.3250
v 0.6500 0.7600 0.3250
v 0.6500 0.0000 0.3850
v 0.7100 0.0000 0.3850
v 0.7100 0.7600 0.3850
v 0.6500 0.7600 0.3850
f 1 4 3
f 1 3 2
f 6 7 8
f 6 8 5
f 4 8 7
f 4 7 3
f 5 1 2
f 5 2 6
f 5 8 4
f 5 4 1
f 2 3 7
f 2 7 6
f 9 12 11
f 9 11 10
f 14 15 16
f 14 16 13
f 12 16 15
f 12 15 11
f 13 9 10
f 13 10 14
f 13 16 12
f 13 12 9
f 10 11 15
f 10 15 14
f 17 20 19
f 17 19 18
f 22 23 24
f 22 24 21
f 20 24 23
f 20 23 19
f 21 17 18
f 21 18 22
f 21 24 20
f 21 20 17
f 18 19 23
f 18 23 22
f 25 28 27
f 25 27 26
f 30 31 32
f 30 32 29
f 28 32 31
f 28 31 27
f 29 25 26
f 29 26 30
f 29 32 28
f 29 28 25
f 26 27 31
f 26 31 30
f 33 36 35
f 33 35 34
f 38 39 40
f 38 40 37
f 36 40 39
f 36 39 35
f 37 33 34
f 37 34 38
f 37 40 36
f 37 36 33
f 34 35 39
f 34 39 38
f 41 44 43
f 41 43 42
f 46 47 48
f 46 48 45
f 44 48 47
f 44 47 43
f 45 41 42
f 45 42 46
f 45 48 44
f 45 44 41
f 42 43 47
f 42 47 46