# mappu.obj - Dual-Sided Corridor Pink / Room White Architecture
mtllib mappu.mtl

vt 0.0 0.0
vt 35.0 0.0
vt 35.0 35.0
vt 0.0 35.0

usemtl white_tiles
# Main Floor with repeating rectangle tiles
v 0 0 100
v 100 0 100
v 100 0 0
v 0 0 0
f 1/1 2/2 3/3 4/4

usemtl black_solid
# Central Atrium Black Tiles
v 22 0.01 71
v 40 0.01 71
v 40 0.01 28
v 22 0.01 28
f 5 6 7 8

usemtl ceiling
# Campus Ceiling
v 0 5 0
v 100 5 0
v 100 5 100
v 0 5 100
f 9 10 11 12

# --- CORRIDOR & EXTERIOR WALLS (LIGHT PINK #fae6e7) ---
usemtl corridor_wall_pink
#  (Corridor Pink)
v 0 0 100
v 100 0 100
v 100 0 0
v 0 0 0
f 13 14 15 16
#  - reverse (Corridor Pink)
v 0 0 100
v 0 0 0
v 100 0 0
v 100 0 100
f 17 18 19 20
#  (Corridor Pink)
v 22 0.01 71
v 40 0.01 71
v 40 0.01 28
v 22 0.01 28
f 21 22 23 24
#  - reverse (Corridor Pink)
v 22 0.01 71
v 22 0.01 28
v 40 0.01 28
v 40 0.01 71
f 25 26 27 28
#  (Corridor Pink)
v 0 5 0
v 100 5 0
v 100 5 100
v 0 5 100
f 29 30 31 32
#  - reverse (Corridor Pink)
v 0 5 0
v 0 5 100
v 100 5 100
v 100 5 0
f 33 34 35 36
# North Boundary - reverse (Corridor Pink)
v 0 0 0
v 0 5 0
v 100 5 0
v 100 0 0
f 41 42 43 44
# South Boundary - reverse (Corridor Pink)
v 100 0 100
v 100 5 100
v 0 5 100
v 0 0 100
f 49 50 51 52
# East Boundary - reverse (Corridor Pink)
v 100 0 0
v 100 5 0
v 100 5 100
v 100 0 100
f 57 58 59 60
# West Boundary - reverse (Corridor Pink)
v 0 0 100
v 0 5 100
v 0 5 0
v 0 0 0
f 65 66 67 68
# inf_north - reverse (Corridor Pink)
v 0 0 16
v 0 5 16
v 14 5 16
v 14 0 16
f 73 74 75 76
# inf_south (Corridor Pink)
v 0 0 28
v 14 0 28
v 14 5 28
v 0 5 28
f 77 78 79 80
# inf_east_n - reverse (Corridor Pink)
v 14 0 16
v 14 5 16
v 14 5 20
v 14 0 20
f 89 90 91 92
# inf_east_s - reverse (Corridor Pink)
v 14 0 24
v 14 5 24
v 14 5 28
v 14 0 28
f 97 98 99 100
# elev_north - reverse (Corridor Pink)
v 0 0 32
v 0 5 32
v 14 5 32
v 14 0 32
f 105 106 107 108
# elev_south (Corridor Pink)
v 0 0 46
v 14 0 46
v 14 5 46
v 0 5 46
f 109 110 111 112
# elev_east_n - reverse (Corridor Pink)
v 14 0 32
v 14 5 32
v 14 5 37
v 14 0 37
f 121 122 123 124
# elev_east_s - reverse (Corridor Pink)
v 14 0 41
v 14 5 41
v 14 5 46
v 14 0 46
f 129 130 131 132
# comp_north - reverse (Corridor Pink)
v 0 0 50
v 0 5 50
v 14 5 50
v 14 0 50
f 137 138 139 140
# comp_south (Corridor Pink)
v 0 0 64
v 14 0 64
v 14 5 64
v 0 5 64
f 141 142 143 144
# comp_east_n - reverse (Corridor Pink)
v 14 0 50
v 14 5 50
v 14 5 55
v 14 0 55
f 153 154 155 156
# comp_east_s - reverse (Corridor Pink)
v 14 0 59
v 14 5 59
v 14 5 64
v 14 0 64
f 161 162 163 164
# bio_north - reverse (Corridor Pink)
v 0 0 68
v 0 5 68
v 14 5 68
v 14 0 68
f 169 170 171 172
# bio_south (Corridor Pink)
v 0 0 82
v 14 0 82
v 14 5 82
v 0 5 82
f 173 174 175 176
# bio_east_n - reverse (Corridor Pink)
v 14 0 68
v 14 5 68
v 14 5 73
v 14 0 73
f 185 186 187 188
# bio_east_s - reverse (Corridor Pink)
v 14 0 77
v 14 5 77
v 14 5 82
v 14 0 82
f 193 194 195 196
# stairs_sw_north - reverse (Corridor Pink)
v 0 0 86
v 0 5 86
v 20 5 86
v 20 0 86
f 201 202 203 204
# stairs_sw_east_n - reverse (Corridor Pink)
v 20 0 86
v 20 5 86
v 20 5 89
v 20 0 89
f 209 210 211 212
# stairs_sw_east_s - reverse (Corridor Pink)
v 20 0 93
v 20 5 93
v 20 5 100
v 20 0 100
f 217 218 219 220
# nw_lock_east - reverse (Corridor Pink)
v 14 0 0
v 14 5 0
v 14 5 10
v 14 0 10
f 225 226 227 228
# nw_lock_south_w (Corridor Pink)
v 0 0 10
v 4 0 10
v 4 5 10
v 0 5 10
f 229 230 231 232
# nw_lock_south_e (Corridor Pink)
v 8 0 10
v 14 0 10
v 14 5 10
v 8 5 10
f 237 238 239 240
# nw_stairs_west (Corridor Pink)
v 16 0 0
v 16 0 10
v 16 5 10
v 16 5 0
f 245 246 247 248
# nw_stairs_east - reverse (Corridor Pink)
v 32 0 0
v 32 5 0
v 32 5 10
v 32 0 10
f 257 258 259 260
# nw_stairs_south_w (Corridor Pink)
v 16 0 10
v 22 0 10
v 22 5 10
v 16 5 10
f 261 262 263 264
# nw_stairs_south_e (Corridor Pink)
v 26 0 10
v 32 0 10
v 32 5 10
v 26 5 10
f 269 270 271 272
# phy_west (Corridor Pink)
v 35 0 0
v 35 0 14
v 35 5 14
v 35 5 0
f 277 278 279 280
# phy_east - reverse (Corridor Pink)
v 62 0 0
v 62 5 0
v 62 5 14
v 62 0 14
f 289 290 291 292
# phy_south_w (Corridor Pink)
v 35 0 14
v 46 0 14
v 46 5 14
v 35 5 14
f 293 294 295 296
# phy_south_e (Corridor Pink)
v 50 0 14
v 62 0 14
v 62 5 14
v 50 5 14
f 301 302 303 304
# lock_west (Corridor Pink)
v 65 0 0
v 65 0 14
v 65 5 14
v 65 5 0
f 309 310 311 312
# lock_east - reverse (Corridor Pink)
v 80 0 0
v 80 5 0
v 80 5 14
v 80 0 14
f 321 322 323 324
# lock_south_w (Corridor Pink)
v 65 0 14
v 70 0 14
v 70 5 14
v 65 5 14
f 325 326 327 328
# lock_south_e (Corridor Pink)
v 74 0 14
v 80 0 14
v 80 5 14
v 74 5 14
f 333 334 335 336
# unlock_west (Corridor Pink)
v 83 0 0
v 83 0 14
v 83 5 14
v 83 5 0
f 341 342 343 344
# unlock_south_w (Corridor Pink)
v 83 0 14
v 88 0 14
v 88 5 14
v 83 5 14
f 349 350 351 352
# unlock_south_e (Corridor Pink)
v 92 0 14
v 100 0 14
v 100 5 14
v 92 5 14
f 357 358 359 360
# board_west (Corridor Pink)
v 46 0 85
v 46 0 100
v 46 5 100
v 46 5 85
f 365 366 367 368
# board_east - reverse (Corridor Pink)
v 64 0 85
v 64 5 85
v 64 5 100
v 64 0 100
f 377 378 379 380
# board_north_w - reverse (Corridor Pink)
v 46 0 85
v 46 5 85
v 53 5 85
v 53 0 85
f 385 386 387 388
# board_north_e - reverse (Corridor Pink)
v 57 0 85
v 57 5 85
v 64 5 85
v 64 0 85
f 393 394 395 396
# lib_west (Corridor Pink)
v 66 0 83
v 66 0 100
v 66 5 100
v 66 5 83
f 397 398 399 400
# lib_north_w - reverse (Corridor Pink)
v 66 0 83
v 66 5 83
v 78 5 83
v 78 0 83
f 409 410 411 412
# lib_north_e - reverse (Corridor Pink)
v 82 0 83
v 82 5 83
v 100 5 83
v 100 0 83
f 417 418 419 420
# sem_north - reverse (Corridor Pink)
v 55 0 27
v 55 5 27
v 100 5 27
v 100 0 27
f 425 426 427 428
# sem_south (Corridor Pink)
v 55 0 66
v 100 0 66
v 100 5 66
v 55 5 66
f 429 430 431 432
# sem_west_n (Corridor Pink)
v 55 0 27
v 55 0 43
v 55 5 43
v 55 5 27
f 437 438 439 440
# sem_west_s (Corridor Pink)
v 55 0 48
v 55 0 66
v 55 5 66
v 55 5 48
f 445 446 447 448
# inf_lintel - reverse (Corridor Pink)
v 14 3.5 20
v 14 5 20
v 14 5 24
v 14 3.5 24
f 473 474 475 476
# elev_lintel - reverse (Corridor Pink)
v 14 3.5 37
v 14 5 37
v 14 5 41
v 14 3.5 41
f 481 482 483 484
# comp_lintel - reverse (Corridor Pink)
v 14 3.5 55
v 14 5 55
v 14 5 59
v 14 3.5 59
f 489 490 491 492
# bio_lintel - reverse (Corridor Pink)
v 14 3.5 73
v 14 5 73
v 14 5 77
v 14 3.5 77
f 497 498 499 500
# stairs_sw_lintel - reverse (Corridor Pink)
v 20 3.5 89
v 20 5 89
v 20 5 93
v 20 3.5 93
f 505 506 507 508
# nw_lock_lintel (Corridor Pink)
v 4 3.5 10
v 8 3.5 10
v 8 5 10
v 4 5 10
f 509 510 511 512
# nw_stairs_lintel (Corridor Pink)
v 22 3.5 10
v 26 3.5 10
v 26 5 10
v 22 5 10
f 517 518 519 520
# phy_lintel (Corridor Pink)
v 46 3.5 14
v 50 3.5 14
v 50 5 14
v 46 5 14
f 525 526 527 528
# lock_lintel (Corridor Pink)
v 70 3.5 14
v 74 3.5 14
v 74 5 14
v 70 5 14
f 533 534 535 536
# unlock_lintel (Corridor Pink)
v 88 3.5 14
v 92 3.5 14
v 92 5 14
v 88 5 14
f 541 542 543 544
# board_lintel - reverse (Corridor Pink)
v 53 3.5 85
v 53 5 85
v 57 5 85
v 57 3.5 85
f 553 554 555 556
# lib_lintel - reverse (Corridor Pink)
v 78 3.5 83
v 78 5 83
v 82 5 83
v 82 3.5 83
f 561 562 563 564
# sem_lintel (Corridor Pink)
v 55 3.5 43
v 55 3.5 48
v 55 5 48
v 55 5 43
f 565 566 567 568

# --- INTERIOR ROOM WALLS (PURE WHITE #ffffff) ---
usemtl room_wall_white
# North Boundary (Room White)
v 0 0 0
v 100 0 0
v 100 5 0
v 0 5 0
f 37 38 39 40
# South Boundary (Room White)
v 100 0 100
v 0 0 100
v 0 5 100
v 100 5 100
f 45 46 47 48
# East Boundary (Room White)
v 100 0 0
v 100 0 100
v 100 5 100
v 100 5 0
f 53 54 55 56
# West Boundary (Room White)
v 0 0 100
v 0 0 0
v 0 5 0
v 0 5 100
f 61 62 63 64
# inf_north (Room White)
v 0 0 16
v 14 0 16
v 14 5 16
v 0 5 16
f 69 70 71 72
# inf_south - reverse (Room White)
v 0 0 28
v 0 5 28
v 14 5 28
v 14 0 28
f 81 82 83 84
# inf_east_n (Room White)
v 14 0 16
v 14 0 20
v 14 5 20
v 14 5 16
f 85 86 87 88
# inf_east_s (Room White)
v 14 0 24
v 14 0 28
v 14 5 28
v 14 5 24
f 93 94 95 96
# elev_north (Room White)
v 0 0 32
v 14 0 32
v 14 5 32
v 0 5 32
f 101 102 103 104
# elev_south - reverse (Room White)
v 0 0 46
v 0 5 46
v 14 5 46
v 14 0 46
f 113 114 115 116
# elev_east_n (Room White)
v 14 0 32
v 14 0 37
v 14 5 37
v 14 5 32
f 117 118 119 120
# elev_east_s (Room White)
v 14 0 41
v 14 0 46
v 14 5 46
v 14 5 41
f 125 126 127 128
# comp_north (Room White)
v 0 0 50
v 14 0 50
v 14 5 50
v 0 5 50
f 133 134 135 136
# comp_south - reverse (Room White)
v 0 0 64
v 0 5 64
v 14 5 64
v 14 0 64
f 145 146 147 148
# comp_east_n (Room White)
v 14 0 50
v 14 0 55
v 14 5 55
v 14 5 50
f 149 150 151 152
# comp_east_s (Room White)
v 14 0 59
v 14 0 64
v 14 5 64
v 14 5 59
f 157 158 159 160
# bio_north (Room White)
v 0 0 68
v 14 0 68
v 14 5 68
v 0 5 68
f 165 166 167 168
# bio_south - reverse (Room White)
v 0 0 82
v 0 5 82
v 14 5 82
v 14 0 82
f 177 178 179 180
# bio_east_n (Room White)
v 14 0 68
v 14 0 73
v 14 5 73
v 14 5 68
f 181 182 183 184
# bio_east_s (Room White)
v 14 0 77
v 14 0 82
v 14 5 82
v 14 5 77
f 189 190 191 192
# stairs_sw_north (Room White)
v 0 0 86
v 20 0 86
v 20 5 86
v 0 5 86
f 197 198 199 200
# stairs_sw_east_n (Room White)
v 20 0 86
v 20 0 89
v 20 5 89
v 20 5 86
f 205 206 207 208
# stairs_sw_east_s (Room White)
v 20 0 93
v 20 0 100
v 20 5 100
v 20 5 93
f 213 214 215 216
# nw_lock_east (Room White)
v 14 0 0
v 14 0 10
v 14 5 10
v 14 5 0
f 221 222 223 224
# nw_lock_south_w - reverse (Room White)
v 0 0 10
v 0 5 10
v 4 5 10
v 4 0 10
f 233 234 235 236
# nw_lock_south_e - reverse (Room White)
v 8 0 10
v 8 5 10
v 14 5 10
v 14 0 10
f 241 242 243 244
# nw_stairs_west - reverse (Room White)
v 16 0 0
v 16 5 0
v 16 5 10
v 16 0 10
f 249 250 251 252
# nw_stairs_east (Room White)
v 32 0 0
v 32 0 10
v 32 5 10
v 32 5 0
f 253 254 255 256
# nw_stairs_south_w - reverse (Room White)
v 16 0 10
v 16 5 10
v 22 5 10
v 22 0 10
f 265 266 267 268
# nw_stairs_south_e - reverse (Room White)
v 26 0 10
v 26 5 10
v 32 5 10
v 32 0 10
f 273 274 275 276
# phy_west - reverse (Room White)
v 35 0 0
v 35 5 0
v 35 5 14
v 35 0 14
f 281 282 283 284
# phy_east (Room White)
v 62 0 0
v 62 0 14
v 62 5 14
v 62 5 0
f 285 286 287 288
# phy_south_w - reverse (Room White)
v 35 0 14
v 35 5 14
v 46 5 14
v 46 0 14
f 297 298 299 300
# phy_south_e - reverse (Room White)
v 50 0 14
v 50 5 14
v 62 5 14
v 62 0 14
f 305 306 307 308
# lock_west - reverse (Room White)
v 65 0 0
v 65 5 0
v 65 5 14
v 65 0 14
f 313 314 315 316
# lock_east (Room White)
v 80 0 0
v 80 0 14
v 80 5 14
v 80 5 0
f 317 318 319 320
# lock_south_w - reverse (Room White)
v 65 0 14
v 65 5 14
v 70 5 14
v 70 0 14
f 329 330 331 332
# lock_south_e - reverse (Room White)
v 74 0 14
v 74 5 14
v 80 5 14
v 80 0 14
f 337 338 339 340
# unlock_west - reverse (Room White)
v 83 0 0
v 83 5 0
v 83 5 14
v 83 0 14
f 345 346 347 348
# unlock_south_w - reverse (Room White)
v 83 0 14
v 83 5 14
v 88 5 14
v 88 0 14
f 353 354 355 356
# unlock_south_e - reverse (Room White)
v 92 0 14
v 92 5 14
v 100 5 14
v 100 0 14
f 361 362 363 364
# board_west - reverse (Room White)
v 46 0 85
v 46 5 85
v 46 5 100
v 46 0 100
f 369 370 371 372
# board_east (Room White)
v 64 0 85
v 64 0 100
v 64 5 100
v 64 5 85
f 373 374 375 376
# board_north_w (Room White)
v 46 0 85
v 53 0 85
v 53 5 85
v 46 5 85
f 381 382 383 384
# board_north_e (Room White)
v 57 0 85
v 64 0 85
v 64 5 85
v 57 5 85
f 389 390 391 392
# lib_west - reverse (Room White)
v 66 0 83
v 66 5 83
v 66 5 100
v 66 0 100
f 401 402 403 404
# lib_north_w (Room White)
v 66 0 83
v 78 0 83
v 78 5 83
v 66 5 83
f 405 406 407 408
# lib_north_e (Room White)
v 82 0 83
v 100 0 83
v 100 5 83
v 82 5 83
f 413 414 415 416
# sem_north (Room White)
v 55 0 27
v 100 0 27
v 100 5 27
v 55 5 27
f 421 422 423 424
# sem_south - reverse (Room White)
v 55 0 66
v 55 5 66
v 100 5 66
v 100 0 66
f 433 434 435 436
# sem_west_n - reverse (Room White)
v 55 0 27
v 55 5 27
v 55 5 43
v 55 0 43
f 441 442 443 444
# sem_west_s - reverse (Room White)
v 55 0 48
v 55 5 48
v 55 5 66
v 55 0 66
f 449 450 451 452
# sem_stage_div_n (Room White)
v 83 0 27
v 83 0 40
v 83 5 40
v 83 5 27
f 453 454 455 456
# sem_stage_div_n - reverse (Room White)
v 83 0 27
v 83 5 27
v 83 5 40
v 83 0 40
f 457 458 459 460
# sem_stage_div_s (Room White)
v 83 0 53
v 83 0 66
v 83 5 66
v 83 5 53
f 461 462 463 464
# sem_stage_div_s - reverse (Room White)
v 83 0 53
v 83 5 53
v 83 5 66
v 83 0 66
f 465 466 467 468
# inf_lintel (Room White)
v 14 3.5 20
v 14 3.5 24
v 14 5 24
v 14 5 20
f 469 470 471 472
# elev_lintel (Room White)
v 14 3.5 37
v 14 3.5 41
v 14 5 41
v 14 5 37
f 477 478 479 480
# comp_lintel (Room White)
v 14 3.5 55
v 14 3.5 59
v 14 5 59
v 14 5 55
f 485 486 487 488
# bio_lintel (Room White)
v 14 3.5 73
v 14 3.5 77
v 14 5 77
v 14 5 73
f 493 494 495 496
# stairs_sw_lintel (Room White)
v 20 3.5 89
v 20 3.5 93
v 20 5 93
v 20 5 89
f 501 502 503 504
# nw_lock_lintel - reverse (Room White)
v 4 3.5 10
v 4 5 10
v 8 5 10
v 8 3.5 10
f 513 514 515 516
# nw_stairs_lintel - reverse (Room White)
v 22 3.5 10
v 22 5 10
v 26 5 10
v 26 3.5 10
f 521 522 523 524
# phy_lintel - reverse (Room White)
v 46 3.5 14
v 46 5 14
v 50 5 14
v 50 3.5 14
f 529 530 531 532
# lock_lintel - reverse (Room White)
v 70 3.5 14
v 70 5 14
v 74 5 14
v 74 3.5 14
f 537 538 539 540
# unlock_lintel - reverse (Room White)
v 88 3.5 14
v 88 5 14
v 92 5 14
v 92 3.5 14
f 545 546 547 548
# board_lintel (Room White)
v 53 3.5 85
v 57 3.5 85
v 57 5 85
v 53 5 85
f 549 550 551 552
# lib_lintel (Room White)
v 78 3.5 83
v 82 3.5 83
v 82 5 83
v 78 5 83
f 557 558 559 560
# sem_lintel - reverse (Room White)
v 55 3.5 43
v 55 5 43
v 55 5 48
v 55 3.5 48
f 569 570 571 572
# sem_stage_arch (Room White)
v 83 3.5 40
v 83 3.5 53
v 83 5 53
v 83 5 40
f 573 574 575 576
# sem_stage_arch - reverse (Room White)
v 83 3.5 40
v 83 5 40
v 83 5 53
v 83 3.5 53
f 577 578 579 580
